<svg width="31" height="37" viewBox="0 0 31 37" fill="none" xmlns="http://www.w3.org/2000/svg">
<path d="M29.2699 12.6236L18.334 1.37763C16.7718 -0.44645 14.2282 -0.44645 12.7305 1.30226L1.66556 12.699C0.593919 13.9502 0 15.6236 0 17.4024V32.4624C0 34.9649 1.74302 37 3.8863 37H27.1266C29.257 37 31 34.9649 31 32.4624V17.4024C31 15.6236 30.4061 13.9502 29.2699 12.6236ZM28.4177 32.4624C28.4177 33.3066 27.8367 33.985 27.1266 33.985H18.9409V24.2766C18.9409 23.4023 18.3469 22.7088 17.5981 22.7088H13.4019C12.666 22.7088 12.0591 23.4023 12.0591 24.2766V33.985H3.8863C3.16327 33.985 2.58226 33.3066 2.58226 32.4624V17.4024C2.58226 16.4527 2.91795 15.503 3.4344 14.8849L14.4994 3.50322C14.7705 3.18664 15.1191 3.02081 15.4806 3.02081C15.868 3.02081 16.2553 3.20171 16.5652 3.56352L27.501 14.8246C28.095 15.518 28.4177 16.4376 28.4177 17.4024V32.4624Z" fill="#FAF8F5"/>
</svg>
