<svg width="290" height="181" viewBox="0 0 290 181" fill="none" xmlns="http://www.w3.org/2000/svg">
<ellipse cx="85" cy="87" rx="85" ry="87" fill="#C1DEDC"/>
<ellipse cx="205" cy="94" rx="85" ry="87" fill="#FAF8F5"/>
<path d="M54.0127 73.4531H59.8232L69.54 100.211L79.2324 73.4531H85.0674L71.8594 109H67.1963L54.0127 73.4531ZM51.083 73.4531H56.7715L57.7969 98.0381V109H51.083V73.4531ZM82.2842 73.4531H87.9971V109H81.2832V98.0381L82.2842 73.4531ZM114.608 73.4531H121.322V97.0615C121.322 99.7796 120.736 102.066 119.564 103.922C118.393 105.761 116.798 107.153 114.779 108.097C112.761 109.024 110.466 109.488 107.895 109.488C105.29 109.488 102.971 109.024 100.937 108.097C98.902 107.153 97.307 105.761 96.1514 103.922C94.9958 102.066 94.418 99.7796 94.418 97.0615V73.4531H101.132V97.0615C101.132 98.7217 101.409 100.081 101.962 101.139C102.515 102.18 103.297 102.953 104.306 103.458C105.315 103.963 106.511 104.215 107.895 104.215C109.294 104.215 110.491 103.963 111.483 103.458C112.493 102.953 113.266 102.18 113.803 101.139C114.34 100.081 114.608 98.7217 114.608 97.0615V73.4531ZM146.298 99.7715C146.298 99.0879 146.192 98.4775 145.98 97.9404C145.785 97.387 145.419 96.8906 144.882 96.4512C144.361 95.9954 143.62 95.556 142.66 95.1328C141.716 94.6934 140.495 94.2376 138.998 93.7656C137.338 93.2448 135.792 92.6589 134.359 92.0078C132.927 91.3568 131.666 90.5999 130.575 89.7373C129.501 88.8747 128.663 87.8818 128.061 86.7588C127.458 85.6195 127.157 84.3011 127.157 82.8037C127.157 81.3389 127.466 80.0042 128.085 78.7998C128.72 77.5954 129.615 76.5618 130.771 75.6992C131.926 74.8203 133.285 74.1449 134.848 73.6729C136.426 73.2008 138.168 72.9648 140.072 72.9648C142.709 72.9648 144.988 73.445 146.908 74.4053C148.845 75.3656 150.342 76.6676 151.4 78.3115C152.458 79.9554 152.987 81.8027 152.987 83.8535H146.298C146.298 82.7467 146.062 81.7702 145.59 80.9238C145.134 80.0775 144.434 79.4102 143.49 78.9219C142.562 78.4336 141.391 78.1895 139.975 78.1895C138.607 78.1895 137.468 78.3929 136.557 78.7998C135.661 79.2067 134.986 79.7601 134.53 80.46C134.091 81.1598 133.871 81.9411 133.871 82.8037C133.871 83.4548 134.026 84.0407 134.335 84.5615C134.644 85.0661 135.108 85.5462 135.727 86.002C136.345 86.4414 137.11 86.8564 138.021 87.2471C138.949 87.6214 140.023 87.9958 141.244 88.3701C143.197 88.9561 144.906 89.6071 146.371 90.3232C147.852 91.0394 149.081 91.8532 150.058 92.7646C151.05 93.6761 151.791 94.7015 152.279 95.8408C152.784 96.9801 153.036 98.2741 153.036 99.7227C153.036 101.253 152.735 102.62 152.133 103.824C151.531 105.029 150.668 106.054 149.545 106.9C148.422 107.747 147.071 108.39 145.492 108.829C143.93 109.269 142.18 109.488 140.243 109.488C138.518 109.488 136.809 109.26 135.116 108.805C133.44 108.333 131.918 107.633 130.551 106.705C129.184 105.761 128.093 104.573 127.279 103.141C126.465 101.692 126.059 99.9993 126.059 98.0625H132.797C132.797 99.1855 132.976 100.146 133.334 100.943C133.708 101.725 134.229 102.368 134.896 102.872C135.58 103.36 136.378 103.718 137.289 103.946C138.201 104.174 139.185 104.288 140.243 104.288C141.61 104.288 142.733 104.101 143.612 103.727C144.507 103.336 145.175 102.799 145.614 102.115C146.07 101.432 146.298 100.65 146.298 99.7715ZM172.348 78.8486L162.216 109H155.111L168.393 73.4531H172.934L172.348 78.8486ZM180.819 109L170.639 78.8486L170.028 73.4531H174.594L187.948 109H180.819ZM180.355 95.792V101.09H161.288V95.792H180.355ZM198.764 73.4531V109H192.05V73.4531H198.764ZM212.729 73.4531V109H206.015V73.4531H212.729ZM234.066 73.4531L219.809 90.7871L211.654 99.5029L210.458 92.9844L216.122 85.6357L225.839 73.4531H234.066ZM226.596 109L215.536 92.3496L220.346 88.0039L234.579 109H226.596Z" fill="black"/>
</svg>
