<svg width="109" height="109" viewBox="0 0 109 109" fill="none" xmlns="http://www.w3.org/2000/svg">
<circle cx="54.5" cy="54.5" r="54.5" fill="#C1DEDC"/>
<path d="M53.8101 43.6921C51.5292 43.6887 49.3208 44.4926 47.5758 45.9615C45.8309 47.4304 44.6621 49.4694 44.2765 51.7175C43.8909 53.9655 44.3134 56.2775 45.4691 58.2439C46.6247 60.2104 48.4391 61.7043 50.5907 62.4612C50.5752 62.6433 50.5752 62.8264 50.5907 63.0085V82.325C50.5907 83.1788 50.9299 83.9977 51.5337 84.6014C52.1374 85.2052 52.9563 85.5444 53.8101 85.5444C54.664 85.5444 55.4828 85.2052 56.0866 84.6014C56.6903 83.9977 57.0295 83.1788 57.0295 82.325V63.0085C57.0451 62.8264 57.0451 62.6433 57.0295 62.4612C59.1812 61.7043 60.9955 60.2104 62.1512 58.2439C63.3069 56.2775 63.7293 53.9655 63.3437 51.7175C62.9581 49.4694 61.7893 47.4304 60.0444 45.9615C58.2995 44.4926 56.091 43.6887 53.8101 43.6921V43.6921ZM26.4451 53.3503C26.5331 50.0908 27.3406 46.891 28.81 43.9801C30.2793 41.0692 32.3741 38.5193 34.9444 36.5128C35.2699 36.2422 35.539 35.9101 35.7362 35.5356C35.9334 35.161 36.0549 34.7513 36.0938 34.3298C36.1326 33.9082 36.0881 33.4832 35.9627 33.0789C35.8373 32.6746 35.6335 32.2989 35.3629 31.9734C35.0923 31.6479 34.7603 31.3788 34.3857 31.1816C34.0112 30.9844 33.6014 30.8629 33.1799 30.824C32.7584 30.7851 32.3333 30.8297 31.929 30.9551C31.5247 31.0805 31.1491 31.2843 30.8235 31.5549C27.5215 34.1623 24.8387 37.4695 22.9682 41.2383C21.0978 45.007 20.0862 49.1436 20.0063 53.3503C20.0862 57.5569 21.0978 61.6935 22.9682 65.4623C24.8387 69.2311 27.5215 72.5382 30.8235 75.1457C31.1491 75.4163 31.5247 75.6201 31.929 75.7455C32.3333 75.8709 32.7584 75.9154 33.1799 75.8766C33.6014 75.8377 34.0112 75.7162 34.3857 75.519C34.7603 75.3218 35.0923 75.0527 35.3629 74.7272C35.6335 74.4016 35.8373 74.026 35.9627 73.6217C36.0881 73.2174 36.1326 72.7923 36.0938 72.3708C36.0549 71.9493 35.9334 71.5395 35.7362 71.165C35.539 70.7904 35.2699 70.4584 34.9444 70.1878C32.3741 68.1813 30.2793 65.6313 28.81 62.7204C27.3406 59.8096 26.5331 56.6098 26.4451 53.3503Z" fill="#FAF8F5"/>
<path d="M68.7482 38.0259C68.0896 37.5882 67.2929 37.4083 66.5101 37.5203C65.7273 37.6324 65.0132 38.0287 64.5038 38.6335C63.9944 39.2384 63.7255 40.0096 63.7483 40.8C63.7711 41.5905 64.084 42.3449 64.6273 42.9194C66.2183 44.1647 67.5159 45.7445 68.4284 47.5471C69.3408 49.3497 69.8456 51.3309 69.9072 53.3503C69.8456 55.3697 69.3408 57.3509 68.4284 59.1534C67.5159 60.956 66.2183 62.5359 64.6273 63.7812C64.1292 64.2071 63.7729 64.775 63.6061 65.4088C63.4393 66.0427 63.47 66.7123 63.6939 67.3283C63.9179 67.9443 64.3246 68.4772 64.8596 68.8558C65.3946 69.2345 66.0324 69.4409 66.6878 69.4473C67.444 69.4398 68.1735 69.1662 68.7482 68.6747C71.071 66.843 72.9577 64.5179 74.2717 61.8675C75.5857 59.2172 76.2943 56.308 76.346 53.3503C76.2943 50.3926 75.5857 47.4833 74.2717 44.833C72.9577 42.1827 71.071 39.8576 68.7482 38.0259ZM43.3792 38.4122C42.8297 37.7681 42.0486 37.3663 41.2049 37.294C40.3613 37.2217 39.5232 37.4847 38.8721 38.0259C36.5492 39.8576 34.6625 42.1827 33.3485 44.833C32.0345 47.4833 31.326 50.3926 31.2743 53.3503C31.326 56.308 32.0345 59.2172 33.3485 61.8675C34.6625 64.5179 36.5492 66.843 38.8721 68.6747C39.5232 69.2159 40.3613 69.4788 41.2049 69.4065C42.0486 69.3342 42.8297 68.9325 43.3792 68.2883C43.9205 67.6372 44.1834 66.7991 44.1111 65.9555C44.0388 65.1119 43.6371 64.3307 42.9929 63.7812C41.402 62.5359 40.1043 60.956 39.1919 59.1534C38.2795 57.3509 37.7746 55.3697 37.7131 53.3503C37.7746 51.3309 38.2795 49.3497 39.1919 47.5471C40.1043 45.7445 41.402 44.1647 42.9929 42.9194C43.6371 42.3699 44.0388 41.5887 44.1111 40.7451C44.1834 39.9015 43.9205 39.0633 43.3792 38.4122V38.4122Z" fill="#FAF8F5"/>
<path d="M76.7967 31.5549C76.4712 31.2843 76.0955 31.0805 75.6912 30.9551C75.2869 30.8297 74.8619 30.7851 74.4404 30.824C74.0188 30.8629 73.6091 30.9844 73.2345 31.1816C72.86 31.3788 72.5279 31.6479 72.2573 31.9734C71.7109 32.6309 71.448 33.4785 71.5265 34.3298C71.605 35.1811 72.0184 35.9663 72.6759 36.5128C75.2461 38.5193 77.3409 41.0692 78.8103 43.9801C80.2796 46.891 81.0872 50.0908 81.1751 53.3503C81.0872 56.6098 80.2796 59.8096 78.8103 62.7204C77.3409 65.6313 75.2461 68.1813 72.6759 70.1878C72.0184 70.7343 71.605 71.5195 71.5265 72.3708C71.448 73.2221 71.7109 74.0697 72.2573 74.7272C72.8038 75.3846 73.5891 75.7981 74.4404 75.8766C75.2916 75.955 76.1393 75.6921 76.7967 75.1457C80.0987 72.5382 82.7816 69.2311 84.652 65.4623C86.5225 61.6935 87.5341 57.5569 87.6139 53.3503C87.5341 49.1436 86.5225 45.007 84.652 41.2383C82.7816 37.4695 80.0987 34.1623 76.7967 31.5549V31.5549Z" fill="#FAF8F5"/>
</svg>
