<svg width="29" height="36" viewBox="0 0 29 36" fill="none" xmlns="http://www.w3.org/2000/svg">
<path d="M6.36333 9.08245C6.36333 13.5863 9.88179 17.2539 14.219 17.2539C18.5564 17.2539 22.0747 13.5752 22.0747 9.07148C22.0747 4.56758 18.5562 0.9 14.219 0.9C9.88171 0.9 6.36333 4.56767 6.36333 9.08245ZM8.67086 9.07148C8.67086 5.88761 11.159 3.29334 14.219 3.29334C17.2791 3.29334 19.7672 5.88761 19.7672 9.07148C19.7672 12.2552 17.2687 14.8496 14.219 14.8496C11.1694 14.8496 8.67086 12.2552 8.67086 9.07148Z" fill="#FAF8F5" stroke="#FAF8F5" stroke-width="0.2"/>
<path d="M21.5591 36.0001H6.87838C3.07987 36.0001 0 32.3836 0 27.9232C0 23.4628 3.09271 19.8462 6.87838 19.8462H21.5591C25.3576 19.8462 28.4375 23.4778 28.4375 27.9232C28.4375 32.3685 25.3576 36.0001 21.5591 36.0001ZM6.87838 22.86C4.50432 22.86 2.56656 25.1354 2.56656 27.9232C2.56656 30.7109 4.50432 32.9864 6.87838 32.9864H21.5591C23.9332 32.9864 25.8709 30.7109 25.8709 27.9232C25.8709 25.1354 23.9332 22.86 21.5591 22.86H6.87838Z" fill="#FAF8F5"/>
</svg>
